<mxfile host="drawio-plugin" modified="2022-12-10T01:02:35.003Z" agent="5.0 (Windows NT 6.2; Win64; x64) AppleWebKit/537.36 (KHTML, like Gecko) Chrome/98.0.4758.102 Safari/537.36" etag="WoweC2vS4eQxhzshBSTL" version="15.5.4" type="embed"><diagram id="o-Tl_0576WZvGxUgIhYG" name="Page-1"><mxGraphModel dx="1138" dy="743" grid="1" gridSize="10" guides="1" tooltips="1" connect="1" arrows="1" fold="1" page="1" pageScale="1" pageWidth="850" pageHeight="1100" math="0" shadow="0"><root><mxCell id="0"/><mxCell id="1" parent="0"/><mxCell id="2" value="&lt;&lt;Abstract&gt;&gt; Action Handler" style="swimlane;fontStyle=3;align=center;verticalAlign=top;childLayout=stackLayout;horizontal=1;startSize=26;horizontalStack=0;resizeParent=1;resizeParentMax=0;resizeLast=0;collapsible=1;marginBottom=0;" parent="1" vertex="1"><mxGeometry x="200" y="760" width="315" height="170" as="geometry"/></mxCell><mxCell id="3" value="" style="line;strokeWidth=1;fillColor=none;align=left;verticalAlign=middle;spacingTop=-1;spacingLeft=3;spacingRight=3;rotatable=0;labelPosition=right;points=[];portConstraint=eastwest;" parent="2" vertex="1"><mxGeometry y="26" width="315" height="2" as="geometry"/></mxCell><mxCell id="4" value="-boardState: Stack&lt;Board&gt;&#10;-playerState: Stack&lt;List&lt;Player&gt;&gt;&#10;" style="text;strokeColor=none;fillColor=none;align=left;verticalAlign=top;spacingLeft=4;spacingRight=4;overflow=hidden;rotatable=0;points=[[0,0.5],[1,0.5]];portConstraint=eastwest;" parent="2" vertex="1"><mxGeometry y="28" width="315" height="50" as="geometry"/></mxCell><mxCell id="5" value="" style="line;strokeWidth=1;fillColor=none;align=left;verticalAlign=middle;spacingTop=-1;spacingLeft=3;spacingRight=3;rotatable=0;labelPosition=right;points=[];portConstraint=eastwest;" parent="2" vertex="1"><mxGeometry y="78" width="315" height="8" as="geometry"/></mxCell><mxCell id="6" value="+&lt;i&gt;HandleModelEvent(ModelEvent e): void&lt;/i&gt;&lt;br&gt;- addToStack(List&amp;lt;Player&amp;gt;,&amp;nbsp; Board): void&lt;br&gt;+getPreviousBoard(): Board&lt;br&gt;+getPreviousPlayerState(): List&amp;lt;Player&amp;gt;&lt;br&gt;+isStackEmpty(): Boolean" style="text;html=1;strokeColor=none;fillColor=none;align=left;verticalAlign=middle;whiteSpace=wrap;rounded=0;" parent="2" vertex="1"><mxGeometry y="86" width="315" height="84" as="geometry"/></mxCell><mxCell id="9" value="UndoHandler" style="swimlane;fontStyle=0;childLayout=stackLayout;horizontal=1;startSize=26;fillColor=none;horizontalStack=0;resizeParent=1;resizeParentMax=0;resizeLast=0;collapsible=1;marginBottom=0;" parent="1" vertex="1"><mxGeometry x="80" y="620" width="210" height="52" as="geometry"/></mxCell><mxCell id="12" value="+ handleModelEvent(ModelEvent e)" style="text;strokeColor=none;fillColor=none;align=left;verticalAlign=top;spacingLeft=4;spacingRight=4;overflow=hidden;rotatable=0;points=[[0,0.5],[1,0.5]];portConstraint=eastwest;" parent="9" vertex="1"><mxGeometry y="26" width="210" height="26" as="geometry"/></mxCell><mxCell id="13" value="RedoHandler" style="swimlane;fontStyle=0;childLayout=stackLayout;horizontal=1;startSize=26;fillColor=none;horizontalStack=0;resizeParent=1;resizeParentMax=0;resizeLast=0;collapsible=1;marginBottom=0;" parent="1" vertex="1"><mxGeometry x="490" y="620" width="210" height="52" as="geometry"/></mxCell><mxCell id="14" value="+ handleModelEvent(ModelEvent e)" style="text;strokeColor=none;fillColor=none;align=left;verticalAlign=top;spacingLeft=4;spacingRight=4;overflow=hidden;rotatable=0;points=[[0,0.5],[1,0.5]];portConstraint=eastwest;" parent="13" vertex="1"><mxGeometry y="26" width="210" height="26" as="geometry"/></mxCell><mxCell id="19" value="Extends" style="endArrow=block;endSize=16;endFill=0;html=1;rounded=0;dashed=1;exitX=0.429;exitY=1.077;exitDx=0;exitDy=0;exitPerimeter=0;entryX=0.435;entryY=-0.018;entryDx=0;entryDy=0;entryPerimeter=0;" edge="1" parent="1" source="12" target="2"><mxGeometry width="160" relative="1" as="geometry"><mxPoint x="170" y="690" as="sourcePoint"/><mxPoint x="330" y="690" as="targetPoint"/></mxGeometry></mxCell><mxCell id="20" value="Extends" style="endArrow=block;endSize=16;endFill=0;html=1;rounded=0;dashed=1;exitX=0.252;exitY=1.077;exitDx=0;exitDy=0;exitPerimeter=0;entryX=0.673;entryY=-0.024;entryDx=0;entryDy=0;entryPerimeter=0;" edge="1" parent="1" source="14" target="2"><mxGeometry width="160" relative="1" as="geometry"><mxPoint x="369.9999999999999" y="660.002" as="sourcePoint"/><mxPoint x="536.9350000000001" y="742.94" as="targetPoint"/></mxGeometry></mxCell></root></mxGraphModel></diagram></mxfile>